# xmcd
#
# Track frame offsets: 
#        187
#        25710
#        46045
#        62987
#        83762
#        97350
#        112257
#        132060
#        150790
#        169345
#
# Disc length: 2504 seconds
#
# Revision: 9
# Processed by: cddbd v1.5.2PL0 Copyright (c) Steve Scherf et al.
# Submitted via: ExactAudioCopy v1.1
#
DISCID=7b09c60a
DTITLE=John Lee Hooker - The Healer
DYEAR=1989
DGENRE=Blues
TTITLE0=The Healer ft. Carlos Santana
TTITLE1=I'm in the Mood ft. Bonnie Raitt
TTITLE2=Baby Lee ft. Robert Cray
TTITLE3=Cuttin' Out ft. Canned Head
TTITLE4=Think twice before you go ft. Los Lobos
TTITLE5=Sally Mae ft. George Thorogood
TTITLE6=That's alright ft. Charlie Musselwhite
TTITLE7=Rockin' Chair
TTITLE8=My Dream
TTITLE9=No Substitute
EXTD=JOHN LEE HOOKER "THE HEALER" (1989]\n\nChameleon - Mobile Fidelit
EXTD=y Sound Lab (MFSL]\nDigitally remastered\nUltradisc II - UDCD 567
EXTD=\n24 Carat Gold-CD YEAR: 1989
EXTT0=
EXTT1=
EXTT2=
EXTT3=
EXTT4=
EXTT5=
EXTT6=
EXTT7=
EXTT8=
EXTT9=
PLAYORDER=
